<svg width="401" height="401" xmlns="http://www.w3.org/2000/svg">

 <g>
  <title>Layer 1</title>
  <path id="svg_3" d="m277.5,87" opacity="NaN" stroke="#000" fill="#fff"/>
  <path transform="rotate(1 196.3749999999969,188.7366790771485) " stroke-width="9" id="svg_7" d="m-2.5,274c62,31 160,107 260,13c100,-94 67,-196 9,-226c-58,-30 -89,-15 -88,22c1,37 109,20 147,-9c38,-29 50,-30 44,-15c-6,15 2,14 12,7c10,-7 16,19 1,23c-15,4 -1,16 6,7c7,-9 13,15 -6,21c-19,6 -37,-1 -44,-10" opacity="NaN" stroke="#000" fill="#fff"/>
 </g>
</svg>