<svg width="796" height="915" viewBox="0 0 796 915" fill="none" xmlns="http://www.w3.org/2000/svg">
<path d="M5 794C151 942 552 963 712 749C874.964 531.035 780.334 145.866 386 239C187 286 235.887 518.706 373 478C501 440 428 152 421 120C414 88.0001 360 21.0001 350 27.0001C340 33.0001 348 -26.9999 410 38.0001C472 103 449 53.0001 449 53.0001C449 53.0001 443.256 27.0002 421 27.0001C398.744 27.0001 438 -15.9997 472 38.0001C506 92 519 79.0001 512 53.0001C506.4 32.2001 485.333 27.0001 478 27.0001C491.667 13.0001 522.753 1.12401 540 60.0001C569 159 626 93 613 83" stroke="black" stroke-width="14"/>
</svg>
