<svg width="862" height="1042" viewBox="0 0 862 1042" fill="none" xmlns="http://www.w3.org/2000/svg">
<path d="M827 615.5C827 847.333 643.289 1035 417 1035C190.711 1035 7 847.333 7 615.5C7 383.667 190.711 196 417 196C643.289 196 827 383.667 827 615.5Z" stroke="white" stroke-width="14"/>
<path d="M592 230.385C783 73.3847 872 162.385 854 246.385" stroke="white" stroke-width="11"/>
<path d="M577.479 229.614C639.936 110.795 765.463 -80.42 767.922 105.277" stroke="white" stroke-width="11"/>
<path d="M436.009 316.811C367.94 301.88 314.887 279.483 228.799 307.048C193.764 320.64 138.108 363.214 127.697 385.726C114.684 413.866 111.681 452.343 108.678 482.206C105.675 512.069 86.6556 544.229 140.71 585.004C194.765 625.778 263.726 642.748 330.903 653.919C399.973 665.404 639.215 667.701 698.275 544.804C750.813 435.476 718.295 378.26 642.218 328.871C566.141 279.483 504.078 331.743 436.009 316.811Z" stroke="white" stroke-width="16"/>
<path d="M582.153 228.333C530.755 109.724 406.742 -82.8128 321.874 95.9135" stroke="white" stroke-width="11"/>
<path d="M573 228.001C501 161.001 346.8 57.0006 306 177.001" stroke="white" stroke-width="11"/>
<path d="M592 633.5C592 579.794 572.193 528.287 536.936 490.311C501.679 452.335 453.861 431 404 431C354.139 431 306.321 452.335 271.064 490.311C235.807 528.287 216 579.794 216 633.5L344.851 633.5C344.851 616.603 351.082 600.397 362.175 588.449C373.268 576.501 388.313 569.789 404 569.789C419.687 569.789 434.732 576.501 445.825 588.449C456.918 600.397 463.149 616.603 463.149 633.5H592Z" fill="white"/>
</svg>
