<svg width="1302" height="1305" viewBox="0 0 1302 1305" fill="none" xmlns="http://www.w3.org/2000/svg">
<path d="M1075 614.5C1075 846.333 891.289 1034 665 1034C438.711 1034 255 846.333 255 614.5C255 382.667 438.711 195 665 195C891.289 195 1075 382.667 1075 614.5Z" stroke="black" stroke-width="14"/>
<path d="M1032 437.385C1223 280.385 1312 369.385 1294 453.385" stroke="black" stroke-width="11"/>
<path d="M825.479 228.614C887.936 109.795 1013.46 -81.42 1015.92 104.277" stroke="black" stroke-width="11"/>
<path d="M667 346C599 320 546 281 460 329C425 352.667 369.4 426.8 359 466C346 515 343 582 340 634C337 686 318 742 372 813C426 884 494.891 913.548 562 933C631 953 870 957 929 743C981.485 552.629 949 453 873 367C797 281 735 372 667 346Z" stroke="black" stroke-width="16"/>
<path d="M546 210.44C468.333 107.107 302.8 -51.16 262 142.44" stroke="black" stroke-width="11"/>
<path d="M273 485.001C201 418.001 46.8 314.001 6 434.001" stroke="black" stroke-width="11"/>
<ellipse cx="639" cy="654" rx="188" ry="201" fill="black"/>
<path d="M261 685C124 692 -5.00003 738 30 838C65 938 123 1021 206 982C289 943 326 870 329 860" stroke="black" stroke-width="11"/>
<path d="M438 968C371 1104 328 1143 349 1223C370 1303 540 1310 601 1290C662 1270 648 1120 654 1039" stroke="black" stroke-width="11"/>
<path d="M1067 724C1118 724 1246 752 1265 818C1284 884 1205 1067 1136 1054C1067 1041 1008 966 979 892" stroke="black" stroke-width="11"/>
</svg>
