<svg width="495" height="494" viewBox="0 0 495 494" fill="none" xmlns="http://www.w3.org/2000/svg">
<path d="M68.5166 302.321C62.3429 276.565 61.0175 250.089 64.6159 224.405C68.2142 198.72 76.666 174.33 89.4885 152.627C102.311 130.924 119.253 112.332 139.348 97.9147C159.442 83.497 182.296 73.5351 206.603 68.5978C230.911 63.6605 256.196 63.8446 281.016 69.1394C305.835 74.4342 329.703 84.7361 351.257 99.4569C372.81 114.178 391.627 133.029 406.632 154.935C421.638 176.84 448.788 239.486 438.192 273.822L427.159 362.258L324.099 362.258L236.099 362.258L100.099 362.258L68.5166 302.321Z" fill="white"/>
</svg>
